<?xml version="1.0" encoding="UTF-8" standalone="no"?>
<!DOCTYPE svg PUBLIC "-//W3C//DTD SVG 1.1//EN" "http://www.w3.org/Graphics/SVG/1.1/DTD/svg11.dtd">
<svg width="100%" height="100%" viewBox="0 0 1770 340" version="1.1" xmlns="http://www.w3.org/2000/svg" xmlns:xlink="http://www.w3.org/1999/xlink" xml:space="preserve" xmlns:serif="http://www.serif.com/" style="fill-rule:evenodd;clip-rule:evenodd;stroke-linejoin:round;stroke-miterlimit:2;">
    <g transform="matrix(1,0,0,1,-554.693,-640.079)">
        <g transform="matrix(6.36142,0,0,6.36142,-2973.94,-3692.6)">
            <g transform="matrix(50,0,0,50,550.793,725.036)">
                <path d="M0.078,-0.708L0.547,-0.708L0.547,-0.598L0.204,-0.598L0.204,-0.418L0.529,-0.418L0.529,-0.312L0.204,-0.312L0.204,-0.112L0.565,-0.112L0.565,-0L0.078,-0L0.078,-0.708Z" style="fill-rule:nonzero;"/>
            </g>
            <g transform="matrix(50,0,0,50,581.293,725.036)">
                <path d="M0.642,-0.26C0.642,-0.217 0.635,-0.179 0.62,-0.145C0.605,-0.11 0.585,-0.081 0.56,-0.057C0.535,-0.033 0.505,-0.015 0.47,-0.002C0.435,0.012 0.398,0.018 0.357,0.018C0.316,0.018 0.279,0.012 0.244,-0.002C0.209,-0.015 0.179,-0.033 0.154,-0.057C0.128,-0.081 0.108,-0.11 0.094,-0.145C0.079,-0.179 0.072,-0.217 0.072,-0.26L0.072,-0.708L0.198,-0.708L0.198,-0.265C0.198,-0.244 0.201,-0.224 0.206,-0.204C0.211,-0.183 0.22,-0.165 0.233,-0.149C0.245,-0.133 0.261,-0.12 0.282,-0.11C0.302,-0.1 0.327,-0.095 0.357,-0.095C0.387,-0.095 0.412,-0.1 0.433,-0.11C0.453,-0.12 0.469,-0.133 0.482,-0.149C0.494,-0.165 0.503,-0.183 0.508,-0.204C0.513,-0.224 0.516,-0.244 0.516,-0.265L0.516,-0.708L0.642,-0.708L0.642,-0.26Z" style="fill-rule:nonzero;"/>
            </g>
            <g transform="matrix(50,0,0,50,616.993,725.036)">
                <path d="M0.078,-0.708L0.324,-0.708C0.357,-0.708 0.39,-0.705 0.421,-0.698C0.452,-0.691 0.48,-0.679 0.505,-0.663C0.529,-0.647 0.548,-0.626 0.563,-0.6C0.578,-0.574 0.585,-0.542 0.585,-0.505C0.585,-0.454 0.571,-0.412 0.542,-0.38C0.513,-0.347 0.473,-0.325 0.423,-0.314L0.612,-0L0.46,-0L0.296,-0.3L0.204,-0.3L0.204,-0L0.078,-0L0.078,-0.708ZM0.307,-0.403C0.325,-0.403 0.343,-0.404 0.361,-0.407C0.379,-0.41 0.395,-0.415 0.41,-0.422C0.424,-0.429 0.436,-0.44 0.445,-0.454C0.454,-0.467 0.459,-0.485 0.459,-0.506C0.459,-0.525 0.455,-0.541 0.446,-0.554C0.437,-0.566 0.426,-0.576 0.413,-0.583C0.4,-0.59 0.385,-0.595 0.368,-0.598C0.351,-0.601 0.334,-0.602 0.318,-0.602L0.204,-0.602L0.204,-0.403L0.307,-0.403Z" style="fill-rule:nonzero;"/>
            </g>
        </g>
        <g transform="matrix(6.36142,0,0,6.36142,-2034.96,-3686.88)">
            <g transform="matrix(50,0,0,50,550.793,725.036)">
                <path d="M0.078,-0.708L0.535,-0.708L0.535,-0.598L0.204,-0.598L0.204,-0.404L0.516,-0.404L0.516,-0.298L0.204,-0.298L0.204,-0L0.078,-0L0.078,-0.708Z" style="fill-rule:nonzero;"/>
            </g>
            <g transform="matrix(50,0,0,50,579.443,725.036)">
                <path d="M0.078,-0.708L0.535,-0.708L0.535,-0.598L0.204,-0.598L0.204,-0.404L0.516,-0.404L0.516,-0.298L0.204,-0.298L0.204,-0L0.078,-0L0.078,-0.708Z" style="fill-rule:nonzero;"/>
            </g>
            <g transform="matrix(50,0,0,50,608.093,725.036)">
                <rect x="0.078" y="-0.708" width="0.126" height="0.708" style="fill-rule:nonzero;"/>
            </g>
            <g transform="matrix(50,0,0,50,622.193,725.036)">
                <path d="M0.589,-0.542C0.57,-0.567 0.546,-0.586 0.516,-0.598C0.486,-0.609 0.457,-0.615 0.428,-0.615C0.391,-0.615 0.358,-0.608 0.328,-0.595C0.298,-0.582 0.272,-0.563 0.251,-0.54C0.229,-0.517 0.212,-0.489 0.201,-0.458C0.189,-0.427 0.183,-0.393 0.183,-0.356C0.183,-0.317 0.189,-0.282 0.2,-0.25C0.211,-0.218 0.228,-0.191 0.249,-0.168C0.27,-0.145 0.295,-0.127 0.324,-0.114C0.353,-0.101 0.386,-0.095 0.423,-0.095C0.461,-0.095 0.495,-0.102 0.524,-0.118C0.553,-0.133 0.577,-0.152 0.595,-0.177L0.696,-0.106C0.665,-0.067 0.626,-0.036 0.581,-0.015C0.536,0.007 0.483,0.018 0.422,0.018C0.367,0.018 0.316,0.009 0.27,-0.01C0.223,-0.028 0.183,-0.054 0.15,-0.087C0.117,-0.12 0.091,-0.159 0.072,-0.205C0.053,-0.25 0.044,-0.301 0.044,-0.356C0.044,-0.413 0.054,-0.464 0.074,-0.51C0.093,-0.555 0.12,-0.594 0.155,-0.626C0.189,-0.658 0.229,-0.683 0.276,-0.7C0.323,-0.717 0.373,-0.726 0.428,-0.726C0.451,-0.726 0.474,-0.724 0.499,-0.72C0.524,-0.715 0.547,-0.708 0.57,-0.7C0.593,-0.691 0.614,-0.679 0.634,-0.666C0.654,-0.653 0.671,-0.637 0.685,-0.618L0.589,-0.542Z" style="fill-rule:nonzero;"/>
            </g>
            <g transform="matrix(50,0,0,50,656.993,725.036)">
                <path d="M0.078,-0.708L0.547,-0.708L0.547,-0.598L0.204,-0.598L0.204,-0.418L0.529,-0.418L0.529,-0.312L0.204,-0.312L0.204,-0.112L0.565,-0.112L0.565,-0L0.078,-0L0.078,-0.708Z" style="fill-rule:nonzero;"/>
            </g>
        </g>
        <g transform="matrix(6.36142,0,0,6.36142,-2294.63,-3638.22)">
            <path d="M553.037,708.678C552.749,708.58 552.464,708.475 552.182,708.363C549.866,707.447 547.866,706.163 546.182,704.513C544.499,702.863 543.182,700.897 542.232,698.613C541.282,696.33 540.807,693.805 540.807,691.038C540.807,688.205 541.282,685.647 542.232,683.363C543.182,681.08 544.499,679.138 546.182,677.538C547.866,675.938 549.866,674.705 552.182,673.838C554.499,672.972 557.024,672.538 559.757,672.538C562.524,672.538 565.074,672.972 567.407,673.838C569.741,674.705 571.757,675.938 573.457,677.538C575.157,679.138 576.482,681.08 577.432,683.363C578.238,685.301 578.702,687.436 578.825,689.769C579.083,689.853 579.339,689.942 579.593,690.036C581.926,690.903 583.943,692.136 585.643,693.736C587.343,695.336 588.668,697.278 589.618,699.561C590.568,701.844 591.043,704.403 591.043,707.236C591.043,710.003 590.568,712.528 589.618,714.811C588.668,717.094 587.343,719.061 585.643,720.711C583.943,722.361 581.926,723.644 579.593,724.561C577.26,725.478 574.71,725.936 571.943,725.936C569.21,725.936 566.685,725.478 564.368,724.561C562.051,723.644 560.051,722.361 558.368,720.711C556.685,719.061 555.368,717.094 554.418,714.811C553.635,712.93 553.175,710.886 553.037,708.678ZM571.844,688.736C571.701,687.761 571.464,686.828 571.132,685.938C570.549,684.372 569.724,683.005 568.657,681.838C567.591,680.672 566.307,679.755 564.807,679.088C563.307,678.422 561.641,678.088 559.807,678.088C557.974,678.088 556.316,678.422 554.832,679.088C553.349,679.755 552.074,680.672 551.007,681.838C549.941,683.005 549.116,684.372 548.532,685.938C547.949,687.505 547.657,689.205 547.657,691.038C547.657,692.938 547.949,694.68 548.532,696.263C549.116,697.847 549.949,699.222 551.032,700.388C551.767,701.18 552.594,701.852 553.512,702.405C553.739,701.414 554.041,700.466 554.418,699.561C555.368,697.278 556.685,695.336 558.368,693.736C560.051,692.136 562.051,690.903 564.368,690.036C566.657,689.18 569.149,688.746 571.844,688.736ZM560.025,709.737C560.17,710.692 560.401,711.6 560.718,712.461C561.301,714.044 562.135,715.419 563.218,716.586C564.301,717.753 565.585,718.661 567.068,719.311C568.551,719.961 570.193,720.286 571.993,720.286C573.793,720.286 575.443,719.961 576.943,719.311C578.443,718.661 579.735,717.753 580.818,716.586C581.901,715.419 582.735,714.044 583.318,712.461C583.901,710.878 584.193,709.136 584.193,707.236C584.193,705.403 583.901,703.703 583.318,702.136C582.735,700.569 581.91,699.203 580.843,698.036C580.099,697.223 579.25,696.531 578.296,695.961C578.074,696.878 577.786,697.763 577.432,698.613C576.482,700.897 575.157,702.863 573.457,704.513C571.757,706.163 569.741,707.447 567.407,708.363C565.149,709.25 562.689,709.708 560.025,709.737ZM560.157,704.084C561.822,704.045 563.355,703.721 564.757,703.113C566.257,702.463 567.549,701.555 568.632,700.388C569.716,699.222 570.549,697.847 571.132,696.263C571.366,695.631 571.552,694.972 571.692,694.289C569.978,694.324 568.42,694.656 567.018,695.286C565.535,695.953 564.26,696.869 563.193,698.036C562.126,699.203 561.301,700.569 560.718,702.136C560.484,702.764 560.297,703.413 560.157,704.084Z" style="fill:url(#_Linear1);"/>
        </g>
    </g>
    <defs>
        <linearGradient id="_Linear1" x1="0" y1="0" x2="1" y2="0" gradientUnits="userSpaceOnUse" gradientTransform="matrix(50.2355,0,0,53.3975,540.807,699.237)"><stop offset="0" style="stop-color:rgb(110,206,255);stop-opacity:1"/><stop offset="1" style="stop-color:rgb(0,130,201);stop-opacity:1"/></linearGradient>
    </defs>
</svg>
